<?xml version="1.0" encoding="utf-8"?>
<!-- Generator: Adobe Illustrator 17.0.0, SVG Export Plug-In . SVG Version: 6.00 Build 0)  -->
<!DOCTYPE svg PUBLIC "-//W3C//DTD SVG 1.1//EN" "http://www.w3.org/Graphics/SVG/1.1/DTD/svg11.dtd">
<svg version="1.1" xmlns="http://www.w3.org/2000/svg" xmlns:xlink="http://www.w3.org/1999/xlink" x="0px" y="0px"
	 width="191.979px" height="191.979px" viewBox="0 0 191.979 191.979" enable-background="new 0 0 191.979 191.979"
	 xml:space="preserve">
<g id="Layer_1">
	<g>
		<rect x="0" y="0" fill="#1AC4F4" width="191.979" height="191.979"/>
		<g>
			<path fill="#FFFFFF" d="M52.854,174.697l-4.609-11.306H26.932l-4.608,11.306H11.019l21.601-50.765h10.225l21.601,50.765H52.854z
				 M37.589,137.254L30.892,153.6h13.394L37.589,137.254z"/>
			<path fill="#FFFFFF" d="M88.564,134.518v40.18H77.476v-40.18H62.138v-10.225h41.764v10.225H88.564z"/>
			<path fill="#FFFFFF" d="M133.853,175.56c-14.834,0-25.851-11.449-25.851-25.922v-0.145c0-14.328,10.801-26.066,26.282-26.066
				c9.505,0,15.193,3.169,19.873,7.777l-7.057,8.137c-3.888-3.528-7.848-5.688-12.889-5.688c-8.496,0-14.617,7.057-14.617,15.697
				v0.144c0,8.641,5.977,15.842,14.617,15.842c5.761,0,9.289-2.305,13.25-5.904l7.057,7.129
				C149.333,172.104,143.573,175.56,133.853,175.56z"/>
			<path fill="#FFFFFF" d="M163.874,174.697v-50.404h11.088v50.404H163.874z"/>
		</g>
	</g>
</g>
<g id="Layer_2">
</g>
</svg>
